<?xml version="1.0" encoding="utf-8"?>
<!-- Generator: Adobe Illustrator 25.0.0, SVG Export Plug-In . SVG Version: 6.00 Build 0)  -->
<svg version="1.1" id="Layer_1" xmlns="http://www.w3.org/2000/svg" xmlns:xlink="http://www.w3.org/1999/xlink" x="0px" y="0px"
	 viewBox="0 0 600 156" style="enable-background:new 0 0 600 156;" xml:space="preserve">
<style type="text/css">
	.st0{fill:#A6B88A;}
	.st1{fill:#96A97F;}
	.st2{fill:#3D5E48;}
	.st3{fill:#CBA547;}
	.st4{fill:#404041;}
	.st5{fill:#EF5435;}
</style>
<polygon class="st0" points="21.8,101.3 74.3,106.2 74.3,48.8 21.8,48.8 "/>
<rect x="21.8" y="33" class="st1" width="52.5" height="15.2"/>
<rect x="57.2" class="st2" width="2.5" height="33"/>
<rect x="587.5" y="59.5" class="st2" width="2.5" height="20"/>
<rect x="549.3" y="14.3" class="st2" width="2.5" height="49.4"/>
<rect x="40.5" y="19.6" class="st2" width="2.5" height="13.4"/>
<rect x="8.1" y="64.2" class="st0" width="13.7" height="37"/>
<rect x="109.5" y="96.6" class="st0" width="44.4" height="16.5"/>
<rect x="153.9" y="96.6" class="st3" width="44.4" height="16.5"/>
<rect x="198.4" y="96.6" class="st4" width="44.4" height="16.5"/>
<rect x="242.8" y="96.6" class="st5" width="44.5" height="16.5"/>
<rect x="287.3" y="96.6" class="st3" width="44.5" height="16.5"/>
<rect x="198.4" y="80.1" class="st3" width="44.4" height="16.5"/>
<rect x="242.8" y="80.1" class="st2" width="44.5" height="16.5"/>
<rect x="287.3" y="80.1" class="st5" width="44.5" height="16.5"/>
<rect x="292.2" y="63.7" class="st2" width="44.5" height="16.4"/>
<rect x="331.7" y="96.6" class="st4" width="44.5" height="16.5"/>
<rect x="376.2" y="96.6" class="st0" width="44.5" height="16.5"/>
<rect x="420.6" y="96.6" class="st3" width="44.5" height="16.5"/>
<rect x="465.1" y="96.6" class="st2" width="44.5" height="16.5"/>
<rect x="376.2" y="80.1" class="st2" width="44.5" height="16.5"/>
<rect x="420.6" y="80.1" class="st4" width="44.5" height="16.5"/>
<rect x="465.1" y="80.1" class="st0" width="54.8" height="16.5"/>
<rect x="465.1" y="63.7" class="st2" width="44.5" height="16.4"/>
<rect x="480.7" y="47.2" class="st5" width="44.4" height="16.5"/>
<rect x="509.5" y="63.7" class="st3" width="44.4" height="16.4"/>
<rect x="109.5" y="80.1" class="st2" width="44.4" height="16.5"/>
<rect x="109.5" y="63.7" class="st5" width="44.4" height="16.4"/>
<path class="st2" d="M0,101.2v31.9c0,0-1.4,22.9,17.3,22.9s533.5,0,533.5,0s41.6-72.8,49.2-76.9c-17.3,0-86.6,0-86.6,0
	s-36.7,34-112.9,34s-297.9,0-297.9,0s-3.2,0.6-8.8-4.9C88.3,102.6,69.9,101.2,0,101.2z"/>
<rect x="19.2" y="45.5" class="st2" width="57.6" height="6.6"/>
<rect x="58.5" y="57" class="st4" width="10.9" height="10.9"/>
<rect x="42.7" y="57" class="st4" width="10.9" height="10.9"/>
<rect x="26.9" y="57" class="st4" width="10.9" height="10.9"/>
<rect x="58.5" y="73.6" class="st4" width="10.9" height="10.9"/>
<rect x="42.7" y="73.6" class="st4" width="10.9" height="10.9"/>
<rect x="26.9" y="73.6" class="st4" width="10.9" height="10.9"/>
<rect x="12.2" y="66.7" transform="matrix(0.7071 -0.7071 0.7071 0.7071 -44.7293 30.8973)" class="st4" width="5.4" height="5.4"/>
<rect x="12.2" y="80.1" transform="matrix(0.7071 -0.7071 0.7071 0.7071 -54.1567 34.7998)" class="st4" width="5.4" height="5.4"/>
<rect x="12.2" y="93.4" transform="matrix(0.7071 -0.7071 0.7071 0.7071 -63.587 38.7094)" class="st4" width="5.4" height="5.4"/>
</svg>
