<?xml version="1.0" encoding="utf-8"?>
<!-- Generator: Adobe Illustrator 25.0.0, SVG Export Plug-In . SVG Version: 6.00 Build 0)  -->
<svg version="1.1" id="Layer_1" xmlns="http://www.w3.org/2000/svg" xmlns:xlink="http://www.w3.org/1999/xlink" x="0px" y="0px"
	 viewBox="0 0 300 300" style="enable-background:new 0 0 300 300;" xml:space="preserve">
<style type="text/css">
	.st0{opacity:0.75;fill:#A7B98B;}
	.st1{fill:#CBA547;}
	.st2{fill:#3D5E48;}
	.st3{fill:none;}
	.st4{opacity:0.25;fill:#808080;enable-background:new    ;}
</style>
<path class="st0" d="M167.9,115.5c-0.7-2.5,0.8-5.1,1.6-7.6c0.7-2.5,1.3-5.2,0.4-7.6c-0.8-2.5-3.5-4.4-6-3.6
	c-2.1,0.7-3.2,2.8-4.8,4.3c-0.3,0.2-0.6,0.5-0.9,0.5c-1,0.2-1.7-1.1-1.8-2.1c-0.7-5.5,3.6-10.3,8.4-13.1c3.4-2,7.1-3.4,11-4
	c2.7-0.5,5.5-0.6,8.2-1.1c8.4-1.7,15.4-7.3,21.9-12.9c4.4-3.8,8.2-9.3,10.1-14.7c0.7-2,1.3-4.1,1-6.2c-0.2-2.1-1.3-4.2-3.3-5.1
	c-1.9-0.9-4.3-0.5-6.1,0.6c-1.8,1-3.3,2.6-4.8,4.1c-4.9,4.8-10.6,8.8-16.8,11.9c-1.7,0.8-3.9,1.5-5.3,0.3c0-2.3,2.1-4,3.8-5.5
	c1.7-1.6,3.3-4,2.1-6c-1-1.6-3.3-1.8-4.9-1.1c-1.7,0.8-2.9,2.3-4.1,3.7c-2.6,3.1-5.9,6-9.9,6.4c-4,0.4-8.4-3.3-7.4-7.2
	c0.7-2.5,3.1-4,5.3-5.3c7.7-4.9,14.3-11.5,19.2-19.3c0.7-1,1.3-2.2,1-3.4c-0.3-1.3-1.7-2.1-3-2.2c-1.3-0.1-2.6,0.3-3.8,0.7
	c-2.9,1-5.7,1.9-8.3,3.4c-4,2.3-7.4,5.8-11.7,7.5c-6.6,2.6-22.7-8-29.5-10.2c-12.4-4-18.7-5.3-27.9-5.4c-2.5,0-3.5,0.2-5.9,0.7
	c-1.8,0.4-3.6,0.7-5.2,1.4C87,18.5,83.7,20,81,22.3c-2.7,2.3-4.8,5.4-5.2,8.9c-0.5,5.2,3,10.2,7.5,12.7c4.5,2.6,9.9,3.2,15.1,3.2
	c5.2,0.1,10.5-0.3,15.6,0.5c5.1,0.8,10.3,2.2,14.8,4.8c1.6,0.9,3.1,1.8,4.3,3.1c1.2,1.3,1.9,3.2,1.5,4.9c-0.6,2.2-2.9,3.6-5.2,3.8
	c-2.3,0.2-4.5-0.4-6.8-0.8c-9.4-1.8-20.1,0.5-26.1,7.9c-1.4,1.8-2.6,3.9-2.4,6.2c0.3,3.6,3.8,6.1,7.4,6.7c3.5,0.5,7.1-0.5,10.6-1.2
	c6.8-1.4,13.8-1.7,20.6-1c2.1,0.2,4.5,0.9,5.1,2.9c0.4,1.3-0.3,2.7-1.3,3.7c-1,1-2.2,1.6-3.3,2.4c-2.4,1.7-4.4,4.3-4.9,7.2
	c-0.5,2.9,0.8,6.2,3.5,7.6c4.9,2.6,11.2-2,16.2,0.3c3.1,1.4,4.6,5.1,4.8,8.5c0.2,3.4-0.5,6.8-0.6,10.2c0,1,0.1,2.1,0.9,2.6
	c1.2,0.8,2.7-0.3,3.4-1.5c1.8-3.1,1.3-7.2,3.5-10c0.4-0.5,0.9-1,1.6-1.1c0.9-0.1,1.7,0.7,1.9,1.6c0,0,0.2,3.5,1.8,3
	C167.9,118.9,168.5,117.4,167.9,115.5z M133.7,44.7c-6-1.6-12-3.4-17.9-5.4c-2.1-0.7-4.2-1.4-6.4-1.8c-2.9-0.4-5.8-0.1-8.8,0.1
	c-2.6,0.2-5.3,0.2-7.8-0.6c-2.5-0.9-4.7-2.8-5.2-5.4c-0.4-1.9,0.3-4,1.5-5.5c1.2-1.5,3-2.6,4.8-3.3c5.3-1.9,11.7-0.7,15.4,3.4
	c1.4,1.5,2.4,3.3,4.3,4.3c1.5,0.8,3.3,1.2,4.9,1.9c4.1,1.8,7.7,2.9,12.2,3c4.1,0.1,8.4,0,12.1,1.9c0.6,0.3,1.2,0.6,1.5,1.2
	c0.9,1.4-0.1,3.3-1.5,4.2c-1.4,0.9-3.1,1-4.6,1.6c-0.8,0.3-1.6,0.7-2.5,0.8C135.1,45.1,134.4,44.9,133.7,44.7z M147.2,53.7
	c-1.1,0.2-2.3,0.3-3.4,0c-2-0.4-3.6-1.7-5.6-2.1c-1.1-0.2-3.9-0.3-2.6-2c1.1-1.5,3.5,0,4.9-0.1c0.7-0.1,1.4-0.3,2.1-0.5
	c0.9-0.3,1.8-0.7,2.7-1c1-0.3,2-0.7,3-0.7c1,0,2.1,0.4,2.7,1.3c0.7,1.1,0.4,2.6-0.5,3.5C149.8,53,148.5,53.4,147.2,53.7z
	 M158.5,83.7c-0.7,0.5-1.7,0.6-2.6,0.3c-2-0.5-3.6-2.1-5.2-3.4c-1.1-1-2.3-1.7-3.6-2.4c0.6-0.9,3.9-0.1,5-0.1c2,0.1,4,0.3,5.9,1
	c0.7,0.2,1.4,0.6,1.6,1.3c0.1,0.3,0.1,0.6,0,1C159.5,82.2,159.2,83.1,158.5,83.7z M201.9,58.3c-1.3,1.5-2.2,3.2-3.4,4.8
	c-2.8,3.8-6.7,6.6-10.6,9.4c-1.2,0.9-2.5,1.8-3.9,2.5c-1.4,0.6-2.9,0.9-4.4,1.2c-5.6,1-11.4,1.2-17,0.1c-4.7-1-9.1-2.9-13.8-3.9
	c-1.1-0.2-3.5-0.6-2.7-2.4c0.6-1.5,3.7-0.8,4.9-0.6c2.6,0.4,5.1,1.4,7.6,1.9c7.7,1.6,15.7-0.7,22.6-4.4c6.9-3.7,13.1-8.7,19.7-12.9
	c1.2-0.7,2.6-1.5,3.8-0.9C204.9,55,203.2,56.7,201.9,58.3z"/>
<g>
	<path class="st1" d="M190.2,139.9h-63.1c-0.8,0-1.4-0.6-1.4-1.4v-7.6c0-0.8,0.6-1.4,1.4-1.4h63.1c0.8,0,1.4,0.6,1.4,1.4v7.6
		C191.6,139.3,191,139.9,190.2,139.9z"/>
	<path class="st1" d="M223.3,274.9l-43.6-81.1v-53.8h-42.5v53.8l-43.6,81.1c-2.5,4.6,0.8,10.1,6,10.1h117.5
		C222.5,285,225.8,279.5,223.3,274.9z"/>
	<path class="st2" d="M184.6,245.7c0-2.4-1.9-4.3-4.3-4.3s-4.3,1.9-4.3,4.3c0,0.5,0.1,0.9,0.2,1.4l-17.5,7.8l-17.5-7.8
		c0.1-0.4,0.2-0.9,0.2-1.4c0-2.4-1.9-4.3-4.3-4.3s-4.3,1.9-4.3,4.3c-2.4,0-4.3,1.9-4.3,4.3s1.9,4.3,4.3,4.3c1.6,0,3-0.9,3.8-2.3
		l14.2,6.3l-5.5,2.5c-0.7-1.3-2.1-2.3-3.8-2.3c-2.4,0-4.3,1.9-4.3,4.3s1.9,4.3,4.3,4.3c0,2.4,1.9,4.3,4.3,4.3s4.3-1.9,4.3-4.3
		c0-0.5-0.1-0.9-0.2-1.4l31-13.8c0.7,1.3,2.1,2.3,3.8,2.3c2.4,0,4.3-1.9,4.3-4.3C189,247.5,186.9,245.7,184.6,245.7z"/>
	<path class="st2" d="M175.9,258.7c-1.6,0-3,0.9-3.8,2.3l-2.9-1.3l-8,3.6l6.2,2.8c-0.1,0.4-0.2,0.9-0.2,1.4c0,2.4,1.9,4.3,4.3,4.3
		s4.3-1.9,4.3-4.3c2.4,0,4.3-1.9,4.3-4.3S178.2,258.7,175.9,258.7z"/>
	<path class="st2" d="M158.6,211.2c-9.5,0-17.3,7.8-17.3,17.3v8.5c0,1.4,0.7,2.8,1.9,3.6l4.5,3.1v4.3h4.3v-4.3h4.3v4.3h4.3v-4.3h4.3
		v4.3h4.3v-4.3l4.5-3.1c1.2-0.8,1.9-2.1,1.9-3.6v-8.5C175.9,218.9,168.2,211.2,158.6,211.2z M150,237.1c-2.4,0-4.3-1.9-4.3-4.3
		s1.9-4.3,4.3-4.3s4.3,1.9,4.3,4.3S152.3,237.1,150,237.1z M156.4,239.3c0-2.4,0.9-4.3,2.1-4.3s2.1,1.9,2.1,4.3H156.4z M167.3,237.1
		c-2.4,0-4.3-1.9-4.3-4.3s1.9-4.3,4.3-4.3s4.3,1.9,4.3,4.3C171.6,235.2,169.6,237.1,167.3,237.1z"/>
	<path class="st3" d="M175.9,258.7c-1.6,0-3,0.7-3.8,1.8l-2.9-1l-8,3l6.2,2.4c-0.1,0.4-0.2,0.7-0.2,1.1c0,1.9,1.9,3.6,4.3,3.6
		s4.3-1.6,4.3-3.6"/>
	<polygon class="st4" points="179.9,139.9 137.4,139.9 137.4,143.5 179.9,141.4 	"/>
</g>
</svg>
